<svg xmlns="http://www.w3.org/2000/svg" viewBox="0 0 461.83 253.38"><path d="M12.93,21.35a23.34,23.34,0,0,0,5.38,5.79Q21.54,29.6,27,33a111.31,111.31,0,0,1,9.42,6.44A24.31,24.31,0,0,1,42.3,46a17.21,17.21,0,0,1,2.4,9.18,18.82,18.82,0,0,1-3.1,10.65,20.63,20.63,0,0,1-8.78,7.31,30.28,30.28,0,0,1-12.93,2.63A42.62,42.62,0,0,1,9.77,74.56,24.16,24.16,0,0,1,1.88,71.4,2.72,2.72,0,0,1,.71,69.17L0,51.39v-.12c0-.31.2-.48.59-.52s.62.09.7.41a62.43,62.43,0,0,0,8.83,15.91,15.59,15.59,0,0,0,12.7,6.2,13,13,0,0,0,8.42-2.75q3.39-2.74,3.4-9.19a17.3,17.3,0,0,0-2.29-9,22.34,22.34,0,0,0-5.61-6.44q-3.33-2.56-9.07-6.32T8.9,33.43a23.18,23.18,0,0,1-5.39-6.2,16.32,16.32,0,0,1-2.22-8.6A15.93,15.93,0,0,1,4.68,8.33a20.33,20.33,0,0,1,8.84-6.26,32.2,32.2,0,0,1,11.41-2,41.58,41.58,0,0,1,8,.76,32.24,32.24,0,0,1,6.67,1.93A2.36,2.36,0,0,1,41.31,5l.35,15.91c0,.24-.22.39-.65.47s-.68,0-.76-.23A51.52,51.52,0,0,0,34,8.2Q30.07,2.41,22.23,2.41a11.4,11.4,0,0,0-8.36,3,11.1,11.1,0,0,0-3.1,8.31A13.83,13.83,0,0,0,12.93,21.35Z" transform="translate(0 0.08)" style="fill:#fff"/><path d="M115,6.08a9.6,9.6,0,0,0-7.9-3.39c-.16,0-.24-.24-.24-.7s.08-.71.24-.71l5.38.12c3,.16,5.3.23,7,.23,1.4,0,3.51-.07,6.32-.23l5.15-.12c.15,0,.23.24.23.71s-.08.7-.23.7a8.28,8.28,0,0,0-7.08,3.39q-2.52,3.39-2.52,9.48V48.32A29.15,29.15,0,0,1,117.74,63a24.24,24.24,0,0,1-10.06,9.65,32,32,0,0,1-15,3.4,33.38,33.38,0,0,1-15.21-3.34,24.41,24.41,0,0,1-10.36-9.59,28.48,28.48,0,0,1-3.68-14.69V10.76a13.85,13.85,0,0,0-.71-5.15,4,4,0,0,0-2.51-2.28,18.14,18.14,0,0,0-5.68-.64c-.23,0-.35-.24-.35-.7s.12-.71.35-.71l6.09.12c3.43.16,6.2.23,8.31.23,2.34,0,5.22-.07,8.65-.23l5.85-.12c.24,0,.35.24.35.71s-.11.7-.35.7a17.34,17.34,0,0,0-5.73.7,4,4,0,0,0-2.51,2.4,15.49,15.49,0,0,0-.65,5.2V44.34q0,13.92,5.79,20.77T96.54,72q9.94,0,15.56-6.14t5.61-17.38V15.56Q117.7,9.47,115,6.08Z" transform="translate(0 0.08)" style="fill:#fff"/><path d="M203.23,3.62a2.9,2.9,0,0,1,1.17.88,6.71,6.71,0,0,1,.47,1.81l1.4,15.45c0,.23-.19.39-.58.47a.67.67,0,0,1-.82-.35q-3-9.6-9.07-14.63a22.51,22.51,0,0,0-14.92-5,27.85,27.85,0,0,0-15.3,4.24A28.26,28.26,0,0,0,155.1,18.78a43.72,43.72,0,0,0-3.74,18.66,42.74,42.74,0,0,0,4,18.78A31.29,31.29,0,0,0,166.24,69a27.53,27.53,0,0,0,15.58,4.53q8.53,0,14.22-4.51t10-14.33c.08-.23.31-.31.7-.23s.59.19.59.35l-1.53,14a3.45,3.45,0,0,1-.41,1.75,3.75,3.75,0,0,1-1.22.82,58.25,58.25,0,0,1-22.35,4.33A50.72,50.72,0,0,1,159.47,71a36.57,36.57,0,0,1-15.32-13.33A35.79,35.79,0,0,1,138.65,38a34.79,34.79,0,0,1,5.73-19.65A38.66,38.66,0,0,1,160.06,4.78,50.11,50.11,0,0,1,182.29-.07Q195.28,0,203.23,3.62Z" transform="translate(0 0.08)" style="fill:#fff"/><path d="M276.88,6.08q-2.75-3.39-7.9-3.39c-.15,0-.23-.24-.23-.7s.08-.71.23-.71l5.39.12c3,.16,5.3.23,7,.23,1.4,0,3.51-.07,6.31-.23l5.15-.12c.16,0,.24.24.24.71s-.08.7-.24.7a8.3,8.3,0,0,0-7.08,3.39q-2.5,3.39-2.51,9.48V48.32A29.15,29.15,0,0,1,279.67,63a24.24,24.24,0,0,1-10.06,9.65,32,32,0,0,1-15,3.4,33.51,33.51,0,0,1-15.21-3.34,24.39,24.39,0,0,1-10.35-9.59,28.39,28.39,0,0,1-3.69-14.69V10.76a14.05,14.05,0,0,0-.7-5.15,4.08,4.08,0,0,0-2.51-2.28,18.14,18.14,0,0,0-5.68-.64c-.23,0-.35-.24-.35-.7s.12-.71.35-.71l6.09.12c3.43.16,6.2.23,8.3.23,2.34,0,5.23-.07,8.66-.23l5.85-.12c.23,0,.35.24.35.71s-.12.7-.35.7a17.34,17.34,0,0,0-5.73.7,4.05,4.05,0,0,0-2.52,2.4,15.74,15.74,0,0,0-.64,5.2V44.34q0,13.92,5.79,20.77T258.47,72q9.94,0,15.57-6.14t5.61-17.38V15.56Q279.64,9.47,276.88,6.08Z" transform="translate(0 0.08)" style="fill:#fff"/><path d="M315,21.35a23.34,23.34,0,0,0,5.38,5.79q3.23,2.46,8.72,5.85a111.31,111.31,0,0,1,9.42,6.44A24.31,24.31,0,0,1,344.39,46a17.21,17.21,0,0,1,2.4,9.18,18.82,18.82,0,0,1-3.1,10.65,20.56,20.56,0,0,1-8.78,7.31A30.28,30.28,0,0,1,322,75.81a42.62,42.62,0,0,1-10.12-1.25A24.16,24.16,0,0,1,304,71.4a2.72,2.72,0,0,1-1.17-2.23l-.71-17.78v-.12c0-.31.2-.48.59-.52s.62.09.7.41a62.43,62.43,0,0,0,8.83,15.91,15.59,15.59,0,0,0,12.7,6.2,13,13,0,0,0,8.42-2.75q3.39-2.74,3.4-9.19a17.3,17.3,0,0,0-2.29-9,22.49,22.49,0,0,0-5.61-6.44q-3.33-2.56-9.07-6.32T311,33.43a23.18,23.18,0,0,1-5.39-6.2,16.32,16.32,0,0,1-2.22-8.6,15.93,15.93,0,0,1,3.39-10.3,20.33,20.33,0,0,1,8.84-6.26A32.2,32.2,0,0,1,327,.07a41.58,41.58,0,0,1,8,.76,32.24,32.24,0,0,1,6.67,1.93A2.36,2.36,0,0,1,343.4,5l.35,15.91c0,.24-.22.39-.65.47s-.68,0-.76-.23A51.52,51.52,0,0,0,336.08,8.2q-3.91-5.79-11.76-5.79a11.4,11.4,0,0,0-8.36,3,11.1,11.1,0,0,0-3.1,8.31A13.83,13.83,0,0,0,315,21.35Z" transform="translate(0 0.08)" style="fill:#fff"/><path d="M220.58,109.56a2.88,2.88,0,0,1,1.66,1.17,2.58,2.58,0,0,1,.41,2,2.28,2.28,0,0,1-1.17,1.65q-24.9,16.19-39.11,28.3-8.7,52.47-20.3,79.82t-22.65,30.38a10.93,10.93,0,0,1-2.9.42,9.54,9.54,0,0,1-7.6-3.87Q123,242,124.64,225.54q1.94-17.68,12-36.19,14.78-26.65,40.74-49.44,1.92-11.73,3.59-24.58-4.42,6.63-8.15,11.6-5.81,7.6-9.95,6.35c-2.2-.64-3.5-2.66-3.86-6.07a40.58,40.58,0,0,1,1.45-12.5,57.62,57.62,0,0,1,6.12-15.15q4.29-7.45,9.4-10Q183,86,189.65,92a2.85,2.85,0,0,1,.89,1.87,2.39,2.39,0,0,1-.69,1.86,2.75,2.75,0,0,1-3.79.28q-5-4.56-10.08,0-5.8,5.25-9.26,16.64t-2.14,15.29a19.39,19.39,0,0,0,4-4.14,189.91,189.91,0,0,0,14.22-21.13,2.53,2.53,0,0,1,3.18-1.18,2.34,2.34,0,0,1,1.81,2.76s0,.05,0,.07q-1.94,15.89-4.14,30.39,12.84-10.5,34.94-24.73A2.33,2.33,0,0,1,220.58,109.56ZM137.93,247.8q3.72-1,8.08-6.63t9.46-16.57q5.1-10.9,10.56-30.66t10-45.43Q154.2,168.67,141.36,192a103.48,103.48,0,0,0-6.84,14.91,85.81,85.81,0,0,0-3.79,13.54,63.07,63.07,0,0,0-1.15,11.22,34.13,34.13,0,0,0,1,8.77,17.32,17.32,0,0,0,2.48,5.67,4.33,4.33,0,0,0,4.84,1.65Z" transform="translate(0 0.08)" style="fill:#fff"/><path d="M271.65,110.43a2.61,2.61,0,0,1,3.31,1.66,2.76,2.76,0,0,1-.06,2q-14.79,30.53-26.38,30.52a9.65,9.65,0,0,1-1.52-.14q-9.25-1.8-11.46-24.86-6.78,9.12-12,14.92-4.69,5-8,3.45c-2.21-.83-3.27-3.23-3.18-7.18a40.14,40.14,0,0,1,2.22-11.88,54.22,54.22,0,0,1,6.5-13.39q4.28-6.5,9.25-8.15,7.32-2.62,13.53,4.83a2.62,2.62,0,0,1,.62,1.93,2.42,2.42,0,0,1-.89,1.8,2.67,2.67,0,0,1-2,.62,2.38,2.38,0,0,1-1.79-.9q-4.84-5.79-9.81-2.21-5.65,4-9.46,14.44t-3,14.84c.55-.46,1.2-1.06,1.94-1.79a189.19,189.19,0,0,0,13.53-17c1.2-1.66,2-2.81,2.49-3.45a2.58,2.58,0,0,1,2.9-.9,2.45,2.45,0,0,1,1.93,2.42,104.92,104.92,0,0,0,1.1,12,63.25,63.25,0,0,0,1.66,7.94,19.39,19.39,0,0,0,1.93,4.49,9.6,9.6,0,0,0,1.73,2.28,2.15,2.15,0,0,0,1.31.48q1.94.42,4.91-1.86c2-1.52,4.51-4.47,7.59-8.84A115.76,115.76,0,0,0,270,111.86,2.69,2.69,0,0,1,271.65,110.43Z" transform="translate(0 0.08)" style="fill:#fff"/><path d="M325.79,109.88a2.53,2.53,0,0,1,2,.13,2.89,2.89,0,0,1,1.38,1.52,2.18,2.18,0,0,1-.14,2q-3.72,8-8.42,16.43T310.32,147A84,84,0,0,1,299.2,161.1q-5.52,5.46-9.39,5.46a4,4,0,0,1-1.8-.42q-5.65-2.2-3.59-17.12,1.93-14,10.22-39.5a.25.25,0,0,0-.2.07.27.27,0,0,1-.21.07q-3,2.07-5,3.18a55.86,55.86,0,0,1-5.39,2.48,15,15,0,0,1-6.46,1.24,10.66,10.66,0,0,1-5.66-1.93,12.35,12.35,0,0,1-5.39-10.36q-.13-6.63,5-14.5a37.67,37.67,0,0,1,7.67-8.7q4.49-3.72,7.66-1.66A4.6,4.6,0,0,1,288.94,83q.35,2.49-2.41,9.6a151,151,0,0,1-9.26,18.58q4.29.55,14.09-5.94c1.19-.83,2.09-1.4,2.69-1.73s1.29-.66,2.07-1a3.49,3.49,0,0,1,2-.42,4.53,4.53,0,0,1,1.65.69c1.38,1.11,1.61,3,.69,5.8q-13.8,42.83-10.91,51.93c.19.37.33.64.42.83.73.09,1.86-.51,3.38-1.8a48.51,48.51,0,0,0,5.66-6.07q3.39-4.14,7.32-9.95T315,129.3q4.77-8.43,9.19-18A2.68,2.68,0,0,1,325.79,109.88Zm-53.66-9.32c-.83,3.23-.64,5.8.55,7.74q10.08-17.53,10.78-23.76a19,19,0,0,0-3.8,3.18,36.61,36.61,0,0,0-4.42,5.73A22.36,22.36,0,0,0,272.13,100.56Z" transform="translate(0 0.08)" style="fill:#fff"/><path d="M380.4,26q3.6,3.59-3.59,25.41Q376.27,53,375.29,56q-3,9.25-5,14.77t-6.07,15.47q-4.16,9.94-9,19.06-4,19.06-7.6,40.6-6.21,36.87-6.62,50a3,3,0,0,1,2.2,0,2.84,2.84,0,0,1,1.25,3.58q-2.49,5.23-5,5.24a4.61,4.61,0,0,1-1.11-.13,3.56,3.56,0,0,1-2.14-2c-.41-1-.6-3-.55-6.07a134.8,134.8,0,0,1,1.17-13.61q1.67-14.36,5.53-37.84,2.2-12.84,4.55-25-4.27,6.9-9.11,13.81-9.12,13.26-15.88,9.53-4.43-3.18-4.28-11.26a40,40,0,0,1,4-16.36q4.56-9.67,10.77-14.23t11.05-3.11q4.83,1.45,5.53,7.25c.46-.73.87-1.47,1.24-2.21q7.32-34.65,14.71-55.72T377,25.14A2.84,2.84,0,0,1,380.4,26ZM333.58,130.8q6.48-9.39,11.87-18.78a2.18,2.18,0,0,1-1.7-2.57,1.46,1.46,0,0,1,.05-.2c.36-3.4-.23-5.33-1.8-5.8h-.83q-2.9,0-7.11,3.8a33.83,33.83,0,0,0-7.48,10.84,33.2,33.2,0,0,0-3,9.32,26.8,26.8,0,0,0-.35,7.74c.28,2,.78,3.15,1.52,3.52.28.19.71.16,1.31-.07a11.6,11.6,0,0,0,3-2.35A41.38,41.38,0,0,0,333.58,130.8Zm38.11-81.07a140.15,140.15,0,0,0,4-14.36q-6.76,14.22-14.5,44.33,3.87-9.39,9-25.27c.64-2,1.15-3.59,1.51-4.7Z" transform="translate(0 0.08)" style="fill:#fff"/><path d="M409.41,110a2.58,2.58,0,0,1,2,.42,2.36,2.36,0,0,1,1,1.72,2.75,2.75,0,0,1-.41,1.94Q396.39,135.91,383.55,145a17.46,17.46,0,0,1-10.08,3.59,11.38,11.38,0,0,1-6.77-2.07,12.46,12.46,0,0,1-3-3.31,21.18,21.18,0,0,1-2.28-5.8,28.62,28.62,0,0,1-.34-9.81,68.68,68.68,0,0,1,3.11-13.81v-.14q3.85-12.56,9.39-19.88t9.94-7.46a3.77,3.77,0,0,1,4.14,2.76q1.51,4-3.59,11.33t-15,15.74a69,69,0,0,0-2.35,9.94,33.84,33.84,0,0,0-.48,7.25,17.14,17.14,0,0,0,1,4.7,12.4,12.4,0,0,0,1.39,2.83,7.79,7.79,0,0,0,1.31,1.38q4.14,3,10.63-1.66,12.15-8.55,27.07-29.55A3,3,0,0,1,409.41,110ZM382.58,92.13q-4.83,3-9.53,13.12Q381.09,97.24,382.58,92.13Z" transform="translate(0 0.08)" style="fill:#fff"/><path d="M458.43,110.22a2.68,2.68,0,0,1,2.07.28,2.48,2.48,0,0,1,1.24,1.59,2.55,2.55,0,0,1-.27,2q-3.75,6.76-8.15,13.12a35.55,35.55,0,0,1-7,7.59q-3.6,2.77-7,2.35-6.9-.83-10.91-14.91-2.9-9.54-5-9.53a1.5,1.5,0,0,0-1.17.34,13.91,13.91,0,0,0-2.42,2.49,41.5,41.5,0,0,0-3.66,5.45q-2,3.47-5.25,10.22t-7,16a2.49,2.49,0,0,1-2.49,1.66,1.18,1.18,0,0,1-.55-.14,2.4,2.4,0,0,1-2.11-2.66,2,2,0,0,1,0-.24q1.38-11.33,10.36-42.12,1-3.18,1.38-4.83a2.74,2.74,0,0,1,1.38-1.59,2.78,2.78,0,0,1,2-.21,2.58,2.58,0,0,1,1.59,1.24,2.34,2.34,0,0,1,.14,2.08l-1.38,4.83q-3,10.63-4.7,16.57,4.43-8.28,7.73-11.46t6.36-3a6.8,6.8,0,0,1,5.73,3.73,46.4,46.4,0,0,1,4.07,9.8q3,10.65,6.49,11,1.67.28,4.08-1.86a33.9,33.9,0,0,0,5.18-6.22q2.76-4.07,4.21-6.42c1-1.56,2.09-3.54,3.38-5.94A2.54,2.54,0,0,1,458.43,110.22Z" transform="translate(0 0.08)" style="fill:#fff"/></svg>